<svg width="30" height="30" viewBox="0 0 30 30" fill="none" xmlns="http://www.w3.org/2000/svg">
<rect width="30" height="30" fill="#0099FF"/>
<g clip-path="url(#clip0_126_671)">
<path d="M9.5 12.1667C9.5 10.694 10.694 9.5 12.1667 9.5H21.5C22.9727 9.5 24.1667 10.694 24.1667 12.1667V21.5C24.1667 22.9727 22.9727 24.1667 21.5 24.1667H12.1667C10.694 24.1667 9.5 22.9727 9.5 21.5V12.1667Z" fill="white"/>
<path d="M16.7298 15.6941C16.4671 15.2895 15.8751 15.2895 15.6125 15.6941L12.5071 20.4708C12.2191 20.9141 12.5371 21.5008 13.0665 21.5008H19.2758C19.8051 21.5008 20.1231 20.9141 19.8351 20.4708L16.7298 15.6941Z" fill="#0099FF"/>
<path d="M20.1693 12.168C20.9059 12.168 21.5026 12.7646 21.5026 13.5013C21.5026 14.238 20.9059 14.8346 20.1693 14.8346C19.4326 14.8346 18.8359 14.238 18.8359 13.5013C18.8359 12.7646 19.4326 12.168 20.1693 12.168Z" fill="#0099FF"/>
</g>
<path d="M7.67767 19.3422C7.39656 19.182 7.16275 18.9504 6.99986 18.6708C6.83697 18.3912 6.75078 18.0736 6.75 17.75V9.07692C6.75 7.80769 7.80769 6.75 9.07692 6.75H17.75C18.4375 6.75 18.8115 7.10292 19.125 7.66667" stroke="white" stroke-width="1.83333" stroke-linecap="round" stroke-linejoin="round"/>
<defs>
<clipPath id="clip0_126_671">
<rect width="14.6667" height="14.6667" fill="white" transform="translate(9.5 9.5)"/>
</clipPath>
</defs>
</svg>
